<?xml version="1.0" encoding="UTF-8"?><svg id="Layer_2" xmlns="http://www.w3.org/2000/svg" xmlns:xlink="http://www.w3.org/1999/xlink" viewBox="0 0 257 261"><defs><style>.cls-1{fill:url(#linear-gradient);}.cls-1,.cls-2,.cls-3{fill-opacity:.3;}.cls-2{fill:url(#linear-gradient-2);}.cls-3{fill:url(#linear-gradient-3);}</style><linearGradient id="linear-gradient" x1="-146.24" y1="698.15" x2="-146.24" y2="437.15" gradientTransform="translate(287 698.15) scale(1 -1)" gradientUnits="userSpaceOnUse"><stop offset="0" stop-color="#f7511d"/><stop offset="1" stop-color="#ffb906"/></linearGradient><linearGradient id="linear-gradient-2" x1="-223.87" y1="695.62" x2="-223.87" y2="582.78" xlink:href="#linear-gradient"/><linearGradient id="linear-gradient-3" x1="-223.37" y1="668.84" x2="-223.37" y2="593.5" xlink:href="#linear-gradient"/></defs><g id="Layer_1-2"><g><path class="cls-1" d="m110.13,261c-2.17-1.08-4.62-1.83-6.46-3.32-5.25-4.29-6.79-9.88-4.98-16.45,3.94-14.3,7.82-28.63,11.72-42.94,3.52-12.93,7.03-25.85,10.54-38.78.15-.55.24-1.12.46-2.14-6.05,3.88-11.74,7.52-17.42,11.18-18.55,11.93-37.07,23.91-55.66,35.78-9.65,6.16-21.47,1.25-23.57-9.66-1.18-6.16,1.85-12.37,7.82-15.8,17.51-10.03,35.04-20.03,52.56-30.05,14.65-8.37,29.32-16.72,43.92-25.18,1.09-.63,2.13-1.96,2.47-3.17,10.39-37.76,20.69-75.56,31.02-113.34,1.77-6.47,8.36-9.13,13.47-5.45,3.38,2.43,4.1,5.85,3.26,9.74-2.07,9.53-4.15,19.06-6.23,28.59-4.66,21.38-9.31,42.76-13.96,64.13-.16.73-.23,1.47-.41,2.61,1.54-.87,2.78-1.55,4.01-2.25,7.88-4.51,15.75-9.02,23.63-13.52.66-.38,1.31-.83,2.03-1.05,1.92-.58,3.58-.1,4.61,1.68,1.02,1.78.67,3.47-.85,4.81-.69.61-1.54,1.04-2.35,1.5-10.38,5.94-20.74,11.9-31.16,17.78-1.6.9-2.6,1.88-2.85,3.81-.3,2.32-.94,4.6-1.48,7.06,4.63-1.77,94.18-59.98,95.03-62.17-1.36.56-2.34.85-3.2,1.34-13.26,7.55-26.52,15.13-39.77,22.7-.44.25-.87.53-1.32.76-2.29,1.15-4.46.66-5.56-1.25-1.11-1.95-.51-4.09,1.7-5.4,3.5-2.08,7.06-4.06,10.59-6.08,10.45-5.98,20.87-12.02,31.4-17.87,1.83-1.01,4.15-1.68,6.22-1.61,3.65.12,6.56,2.98,7.38,6.38.88,3.68-.49,7.2-3.95,9.45-9.96,6.47-19.96,12.88-29.95,19.3-23.26,14.96-46.53,29.9-69.76,44.9-.74.48-1.4,1.48-1.59,2.34-7.86,35.96-15.74,71.91-23.42,107.9-1.53,7.15-5.64,11.48-12.33,13.74h-5.6,0ZM171.23,7.93c-1.32,1.03-43.62,154.52-43.56,158.16,3.07.75,6.17,1.51,9.23,2.26,2.08-4.72,35.01-158.83,34.33-160.42h0ZM59.23,188.15c15.42-9.92,30.51-19.63,45.8-29.46-1.87-3.09-3.65-6.03-5.55-9.16-15.84,9.05-31.48,17.99-47.29,27.02,2.38,3.93,4.65,7.67,7.03,11.6h0Zm65.95-14.65c-4.81,17.63-9.54,34.98-14.32,52.54,4.54,1.1,8.76,2.12,13.17,3.19,3.89-17.9,7.71-35.47,11.57-53.23-3.57-.86-6.91-1.65-10.42-2.49h0Zm-79.7,6.91c-2.73,1.55-5.29,3-7.85,4.46-.73.42-1.49.82-2.17,1.31-3.23,2.34-4.08,6.33-2.1,9.68,1.89,3.2,6.08,4.51,9.54,2.62,3.33-1.81,6.45-3.99,9.83-6.11-2.46-4.06-4.81-7.93-7.25-11.96h0Zm63.34,53.1c-1,3.73-2.02,7.21-2.86,10.74-.95,3.99,1.17,7.54,5.03,8.69,3.54,1.06,7.59-.88,8.73-4.6,1.14-3.69,1.79-7.53,2.7-11.49-4.56-1.12-8.9-2.18-13.59-3.34Zm19.36-100.39c-7.64,4.37-14.72,8.42-21.96,12.57,1.87,3.07,3.57,5.86,5.36,8.79,4.28-2.76,8.33-5.35,12.35-8,.44-.29.82-.87.96-1.4,1.06-3.73,2.06-7.48,3.29-11.97h0Z"/><path class="cls-2" d="m82.21,115.3h-31.07c-.76,0-1.53.04-2.29-.04-2.17-.21-3.4-1.43-3.57-3.6-.16-2.07,1.28-3.74,3.43-4.01.84-.11,1.7-.06,2.54-.06,20.37,0,40.75-.16,61.11.11,5.07.07,7.67-3.55,4.9-8.28-16.6-28.42-32.97-56.98-49.43-85.48-2.88-4.99-6.53-4.96-9.44.09-16.41,28.44-32.81,56.88-49.22,85.31-.25.44-.53.87-.77,1.32-1.81,3.52.12,6.86,4.09,6.9,6.45.07,12.9.02,19.35.02.68,0,1.36-.03,2.04.03,2.28.22,3.88,1.95,3.77,4.02-.11,2.03-1.63,3.6-3.87,3.62-7.64.05-15.29.27-22.91-.09-8.53-.4-13.57-10.08-9.38-17.83,3.75-6.94,7.83-13.7,11.77-20.53C26.2,54.39,39.12,31.97,52.06,9.57c3.44-5.96,9.11-8.33,15.02-6.36,3.42,1.14,5.6,3.62,7.36,6.67,11.88,20.66,23.81,41.3,35.73,61.95,4.79,8.3,9.65,16.57,14.34,24.93,4.2,7.48.59,16.19-7.44,18.17-1.38.34-2.86.36-4.29.36-10.18.03-20.37.02-30.56.02h0Z"/><path class="cls-3" d="m48.03,50.65c-1.73-7.76.03-14.23,6.78-18.6,5.74-3.72,11.84-3.66,17.47.16,6.51,4.41,8.35,10.8,6.46,18.53,4.67,1.25,8.49,3.73,10.89,8.04,2.4,4.31,2.65,8.85,1.04,13.64,8.13,2.31,13.15,7.22,13.38,15.86.18,6.65-3.04,11.55-8.88,14.59-6.22,3.23-11.9,2.07-19.37-3.68-6.88,6.87-16.53,7.46-24.38-.03-5.94,5.63-12.7,7.32-20.11,3.22-5.69-3.15-8.51-8.36-8.06-14.81.55-7.94,5.23-12.78,12.75-14.94-1.9-12.26,1.12-17.85,12.03-21.98Zm48.37,37.73c-.04-4.53-3.77-8.25-8.29-8.27-4.58-.02-8.46,3.9-8.39,8.47.07,4.5,3.85,8.25,8.34,8.26,4.62.01,8.39-3.8,8.34-8.46h0Zm-41.29-42.8c.03,4.54,3.72,8.26,8.24,8.3,4.57.05,8.46-3.84,8.43-8.42-.03-4.62-3.86-8.31-8.55-8.24-4.56.07-8.16,3.78-8.12,8.36h0Zm-12.22,20.98c-.03,4.56,3.59,8.31,8.12,8.41,4.62.1,8.52-3.67,8.56-8.27.04-4.55-3.87-8.47-8.43-8.44-4.5.03-8.22,3.77-8.25,8.3Zm29.08,21.99c.03-4.67-3.73-8.47-8.36-8.44-4.49.04-8.25,3.79-8.3,8.3-.05,4.58,3.83,8.47,8.41,8.43,4.53-.03,8.22-3.74,8.25-8.29h0Zm-4.65-21.87c.01,4.55,3.68,8.25,8.22,8.29,4.61.04,8.48-3.8,8.44-8.39-.03-4.49-3.81-8.28-8.28-8.33-4.62-.05-8.4,3.76-8.39,8.42h0Zm-19.78,21.79c0-4.57-3.64-8.28-8.18-8.35-4.59-.07-8.46,3.77-8.45,8.38,0,4.51,3.73,8.29,8.22,8.35,4.63.07,8.42-3.7,8.41-8.38h0Z"/></g></g></svg>