<?xml version="1.0" encoding="UTF-8"?><svg id="Layer_2" xmlns="http://www.w3.org/2000/svg" xmlns:xlink="http://www.w3.org/1999/xlink" viewBox="0 0 828 149.3"><defs><style>.cls-1{fill:url(#linear-gradient-2);}.cls-2,.cls-3{fill:none;}.cls-2,.cls-3,.cls-4{stroke-miterlimit:10;stroke-width:2.12px;}.cls-2,.cls-4{stroke:#000;}.cls-3{stroke:url(#linear-gradient-4);}.cls-5{fill:url(#linear-gradient-6);}.cls-6{font-family:ObjectSans-Regular, 'Object Sans';font-size:34.86px;}.cls-7{fill:#3a3a3a;}.cls-8{fill:url(#linear-gradient-5);}.cls-9{fill:url(#linear-gradient-7);}.cls-10{fill:url(#linear-gradient-3);}.cls-11{fill:url(#linear-gradient);}.cls-4{fill:#03b8ff;}</style><linearGradient id="linear-gradient" x1="590.35" y1="105.31" x2="647.78" y2="5.84" gradientUnits="userSpaceOnUse"><stop offset="0" stop-color="#f15a24"/><stop offset=".17" stop-color="#f26322"/><stop offset=".68" stop-color="#f57b1f"/><stop offset=".99" stop-color="#f7841e"/></linearGradient><linearGradient id="linear-gradient-2" x1="675.19" y1="93.33" x2="728.27" y2="1.39" xlink:href="#linear-gradient"/><linearGradient id="linear-gradient-3" x1="757.35" y1="102.94" x2="809.5" y2="12.61" xlink:href="#linear-gradient"/><linearGradient id="linear-gradient-4" x1="158.51" y1="131.58" x2="259.15" y2="131.58" xlink:href="#linear-gradient"/><linearGradient id="linear-gradient-5" x1="10.46" y1="34.97" x2="61.47" y2="64.42" gradientUnits="userSpaceOnUse"><stop offset="0" stop-color="#000"/><stop offset=".99" stop-color="#4d4d4d"/></linearGradient><linearGradient id="linear-gradient-6" x1="28.81" y1="9.48" x2="129.75" y2="67.76" xlink:href="#linear-gradient-5"/><linearGradient id="linear-gradient-7" x1="6.74" y1="45.18" x2="130.75" y2="116.78" xlink:href="#linear-gradient-5"/></defs><g id="Layer_1-2"><g><path class="cls-7" d="m159.05,11.22h42.46c12,0,20.32,2.87,24.97,8.62,3.04,3.76,4.56,8.41,4.56,13.94,0,7.56-3.17,13.31-9.51,17.24v.25c8.91,3.67,13.37,10.69,13.37,21.04v1.52c0,11.7-5.92,19.9-17.74,24.59-3.08,1.01-6.11,1.52-9.06,1.52h-49.05V11.22Zm24.52,18.76v15.97h16.79c4.98,0,7.48-2.92,7.48-8.74,0-4.06-2.11-6.36-6.34-6.91-1.06-.21-2.58-.32-4.56-.32h-13.37Zm0,33.71v16.67h18.63c3.8,0,6.38-1.67,7.73-5.01.42-1.65.63-3.04.63-4.18,0-4.98-3.25-7.48-9.76-7.48h-17.24Z"/><path class="cls-7" d="m239.28,99.94V11.22h25.35v88.72h-25.35Z"/><path class="cls-7" d="m295.56,11.22v66.92h38.78v21.8h-63.37V11.22h24.59Z"/><path class="cls-7" d="m365.26,11.22v66.92h38.78v21.8h-63.37V11.22h24.59Z"/><path class="cls-7" d="m436.75,87.26l-4.69,12.67h-26.87l35.49-88.72h22.81l35.49,88.72h-26.87l-4.5-12.67h-30.86Zm24.14-19.01l-8.37-23.58-8.75,23.58h17.11Z"/><path class="cls-7" d="m526.42,74.34h-1.9v25.6h-24.59V11.22h40.94c14.49,0,24.29,4.22,29.4,12.67,3.89,4.94,5.83,10.94,5.83,18v1.52c0,14.36-7.63,24.04-22.88,29.02,12.17,15.63,20.38,24.8,24.65,27.5h-29.78c-4.1-2.62-11.32-11.15-21.67-25.6Zm-1.9-42.33v21.29h11.53c7.94,0,12.51-.93,13.69-2.79,1.35-2.11,2.03-4.39,2.03-6.84,0-7.77-4.98-11.66-14.96-11.66h-12.29Z"/><path class="cls-11" d="m606.39,66.1v33.84h-25.35V11.22h25.35v33.84h25.35V11.22h25.35v88.72h-25.35v-33.84h-25.35Z"/><path class="cls-1" d="m663.42,11.22h24.59v45.37c0,10.35,2.03,16.69,6.08,19.01,2.53,2.2,6.08,3.29,10.65,3.29,7.31,0,12.29-3.46,14.96-10.39.51-2.54.76-4.65.76-6.34V11.22h24.84v47.91c0,17.15-5.32,29.07-15.97,35.74-6.59,4.73-15.12,7.1-25.6,7.1-19.01,0-31.52-7.77-37.52-23.32-1.86-5.11-2.79-10.86-2.79-17.24V11.22Z"/><path class="cls-10" d="m752.14,11.22h42.46c12,0,20.32,2.87,24.97,8.62,3.04,3.76,4.56,8.41,4.56,13.94,0,7.56-3.17,13.31-9.51,17.24v.25c8.91,3.67,13.37,10.69,13.37,21.04v1.52c0,11.7-5.92,19.9-17.74,24.59-3.08,1.01-6.11,1.52-9.06,1.52h-49.05V11.22Zm24.52,18.76v15.97h16.79c4.98,0,7.48-2.92,7.48-8.74,0-4.06-2.11-6.36-6.34-6.91-1.06-.21-2.58-.32-4.56-.32h-13.37Zm0,33.71v16.67h18.63c3.8,0,6.38-1.67,7.73-5.01.42-1.65.63-3.04.63-4.18,0-4.98-3.25-7.48-9.76-7.48h-17.24Z"/><text class="cls-6" transform="translate(671.88 139.96)"><tspan x="0" y="0">est 2022</tspan></text><g><polygon class="cls-2" points="634.51 126.5 264.27 126.5 260.08 136.66 632 136.66 634.51 126.5"/><path class="cls-3" d="m257.57,126.5h-97.11c-.49,0-.89.4-.89.89v8.39c0,.49.4.89.89.89h92.93s4.19-10.17,4.19-10.17Z"/><path class="cls-2" d="m637.64,136.66h22.56c.49,0,.89-.4.89-.89v-8.39c0-.49-.4-.89-.89-.89h-20.05s-2.51,10.17-2.51,10.17Z"/><path class="cls-4" d="m649.09,136.66h11.55c.25,0,.46-.4.46-.89v-8.39c0-.49-.2-.89-.46-.89h-10.27s-1.29,10.17-1.29,10.17Z"/></g><g><path class="cls-8" d="m22.37,78.74c3.74,5.22,8.16,10.75,13.12,15.88-3.65-6.32-5.74-13.65-5.74-21.48,0-23.74,19.25-42.99,42.99-42.99,2.76,0,5.46.26,8.08.76-10.84-8.37-24.68-12.14-41.29-11.23-7.94.44-14.98,1.92-19.91,3.25-6.75,7.2-12.04,15.77-15.42,25.25,3.41,6.92,9.73,18.78,18.18,30.55Z"/><path class="cls-5" d="m39.32,17.25c19.02-1.06,35.13,4.13,46.89,15.06,17.14,5.65,29.51,21.8,29.51,40.83,0,10.22-3.57,19.6-9.52,26.98,11.79-11.42,23.17-29.32,34.04-53.62C129.78,19.3,103.42,0,72.53,0c-19.16,0-36.58,7.43-49.55,19.57,4.54-1.03,10.14-1.97,16.34-2.32Z"/><path class="cls-9" d="m141.43,49.81c-20.53,44.97-43.08,67.77-67.05,67.77h-.13c-9.93-.03-20.09-4.02-30.18-11.84-7.99-6.2-15.97-14.81-23.71-25.61-7.68-10.71-13.62-21.49-17.25-28.65-2.02,6.66-3.11,13.73-3.11,21.05,0,40.06,32.47,72.53,72.53,72.53s72.53-32.47,72.53-72.53c0-7.94-1.28-15.57-3.63-22.72Z"/></g><path d="m64.78,71.64c-3.82-2-5.7-5.21-5.7-8.67,0-6.67,6-11.1,13.89-11.1,9.22,0,13.04,5.34,13.04,10.13,0,3.39-1.82,6.73-5.76,8.67v.18c3.88,1.45,7.28,4.73,7.28,9.76,0,7.16-6,12.01-15.16,12.01-10.01,0-14.61-5.64-14.61-10.98,0-4.73,2.73-8,7.03-9.88v-.12Zm13.34,9.7c0-3.46-2.61-5.52-6.18-6.49-3.03.85-4.79,3.03-4.79,5.88-.06,2.85,2.12,5.52,5.58,5.52,3.21,0,5.4-2.12,5.4-4.91Zm-10.31-18.68c0,2.67,2.36,4.37,5.52,5.34,2.12-.61,4-2.55,4-4.97s-1.39-4.91-4.79-4.91c-3.15,0-4.73,2.12-4.73,4.55Z"/></g></g></svg>