<?xml version="1.0" encoding="UTF-8"?><svg id="Layer_2" xmlns="http://www.w3.org/2000/svg" xmlns:xlink="http://www.w3.org/1999/xlink" viewBox="0 0 276.25 245.58"><defs><style>.cls-1{fill:url(#linear-gradient-2);}.cls-2{fill:url(#linear-gradient-6);}.cls-3{fill:url(#linear-gradient-5);}.cls-4{fill:url(#linear-gradient-3);}.cls-5{fill:url(#linear-gradient);}.cls-6{fill:url(#linear-gradient-4);}</style><linearGradient id="linear-gradient" x1="-136.7" y1="459.35" x2="-177.69" y2="340.07" gradientTransform="translate(287 549.09) scale(1 -1)" gradientUnits="userSpaceOnUse"><stop offset="0" stop-color="#8e1b1b"/><stop offset="1" stop-color="#ce5f3b"/></linearGradient><linearGradient id="linear-gradient-2" x1="-230.96" y1="447.33" x2="-258.3" y2="367.77" xlink:href="#linear-gradient"/><linearGradient id="linear-gradient-3" x1="-69.74" y1="391.93" x2="-97.09" y2="312.37" xlink:href="#linear-gradient"/><linearGradient id="linear-gradient-4" x1="-105.97" y1="548.77" x2="-130.85" y2="476.38" xlink:href="#linear-gradient"/><linearGradient id="linear-gradient-5" x1="-39.4" y1="480.26" x2="-64.28" y2="407.87" xlink:href="#linear-gradient"/><linearGradient id="linear-gradient-6" x1="-200.59" y1="535.65" x2="-225.45" y2="463.34" xlink:href="#linear-gradient"/></defs><g id="Layer_1-2"><path class="cls-5" d="m160.02,159.84c-6.06,17.64-12.12,35.28-18.19,52.91-1.72,5-3.92,6.09-8.9,4.38-15.84-5.43-31.67-10.87-47.5-16.33-4.64-1.6-5.77-3.91-4.17-8.55,12.21-35.54,24.42-71.08,36.64-106.61,1.54-4.49,3.86-5.67,8.36-4.14,16.02,5.47,32.03,10.97,48.03,16.51,4.5,1.56,5.62,3.92,4.09,8.39-6.11,17.82-12.24,35.62-18.36,53.44h0Zm-60.44,12.27l40,13.75,27.19-79.11-40-13.75-27.19,79.11Zm36.58,24.13l-40.08-13.78-3.27,9.52,40.08,13.78,3.27-9.52Z"/><path class="cls-1" d="m72.59,151.9c-3.81,11.09-7.62,22.19-11.44,33.28-1.69,4.9-3.82,5.96-8.67,4.3-15.84-5.43-31.68-10.88-47.52-16.33-4.7-1.62-5.87-3.89-4.29-8.51,7.64-22.28,15.29-44.55,22.96-66.82,1.62-4.71,3.99-5.81,8.84-4.15,15.76,5.4,31.51,10.81,47.25,16.24,4.87,1.68,5.95,3.9,4.3,8.71-3.8,11.09-7.62,22.19-11.43,33.28h0Zm.07-33.29l-2.64-.91c-11.59-3.98-23.2-7.91-34.76-12-2.21-.78-3.05-.36-3.77,1.82-3.83,11.48-7.82,22.9-11.75,34.34-.29.83-.57,1.66-.85,2.48l40.19,13.81,13.59-39.55h0Zm-60.45,45.7l39.97,13.74,3.31-9.62-39.97-13.74-3.31,9.62Z"/><path class="cls-4" d="m173.38,186.55c3.84-11.18,7.68-22.36,11.53-33.54,1.54-4.46,3.85-5.61,8.39-4.06,15.94,5.45,31.86,10.92,47.78,16.42,4.6,1.59,5.75,3.99,4.16,8.61-7.64,22.28-15.29,44.55-22.96,66.82-1.59,4.61-3.92,5.69-8.62,4.07-15.84-5.43-31.68-10.88-47.52-16.33-4.85-1.67-5.88-3.82-4.2-8.72,3.8-11.1,7.62-22.18,11.43-33.28h0Zm46.98,27.15c.36-1.04.62-1.81.89-2.58,3.93-11.44,7.81-22.9,11.85-34.31.77-2.17.35-3.02-1.86-3.76-11.63-3.88-23.2-7.92-34.79-11.9-.85-.29-1.7-.58-2.55-.88l-13.62,39.64,40.1,13.78h0Zm-46.95,6.01l39.97,13.74,3.3-9.61-39.97-13.73-3.3,9.61Z"/><path class="cls-6" d="m132.53,58.31c2.45-4.21,4.96-9.18,8.1-13.72,2.51-3.62,2.9-6.59.3-10.42-2.81-4.14-4.86-8.78-7.32-13.16-1.25-2.22-1.57-4.4,0-6.5,1.59-2.13,3.87-2.33,6.31-1.79,6.03,1.33,12.08,2.55,18.07,4.03,1.98.49,3.07-.15,4.31-1.47,4.11-4.38,8.36-8.63,12.5-12.98,1.73-1.82,3.66-2.85,6.22-1.97,2.56.87,3.46,2.87,3.71,5.37.6,5.98,1.33,11.94,1.88,17.93.17,1.8.61,2.95,2.49,3.78,5.38,2.38,10.62,5.09,15.95,7.6,2.49,1.17,4.69,2.56,4.65,5.65-.04,3.06-2.18,4.42-4.74,5.49-5.41,2.26-10.73,4.72-16.16,6.93-1.7.69-2.42,1.69-2.63,3.44-.7,5.87-1.54,11.71-2.27,17.57-.33,2.63-1.1,4.92-3.95,5.76-2.86.85-4.78-.65-6.55-2.65-4.02-4.53-8.15-8.96-12.14-13.52-1.05-1.2-2.03-1.53-3.61-1.22-6.32,1.2-12.65,2.31-19,3.33-4.51.72-7.7-2.79-6.14-7.47h0Zm15.16-4.8c4.38-.76,8.23-1.35,12.05-2.11,2.76-.56,4.89.2,6.73,2.31,2.55,2.93,5.21,5.77,8.19,9.05.55-4.14,1.11-7.77,1.49-11.42.33-3.15,1.72-5.26,4.84-6.41,3.46-1.28,6.79-2.9,10.69-4.59-4.08-2-7.62-3.84-11.25-5.48-2.51-1.14-3.65-2.98-3.89-5.61-.34-3.82-.81-7.63-1.29-12.08-3.05,3.13-5.72,5.76-8.25,8.51-1.93,2.12-4.07,2.93-6.97,2.2-3.77-.95-7.61-1.63-11.97-2.54,1.99,3.66,3.58,6.9,5.48,9.95,1.86,2.99,1.68,5.65-.18,8.52-1.94,3-3.63,6.16-5.68,9.69h0Z"/><path class="cls-3" d="m199.12,126.72c3.1-5.33,6.28-11.06,9.74-16.61,1.12-1.79.98-3.06,0-4.76-2.99-5.25-5.78-10.62-8.73-15.89-1.26-2.25-1.49-4.41.07-6.49,1.59-2.12,3.84-2.3,6.3-1.75,6.11,1.36,12.25,2.6,18.33,4.06,1.62.39,2.55,0,3.61-1.13,4.18-4.44,8.48-8.77,12.69-13.18,1.77-1.86,3.69-3.09,6.42-2.15,2.71.94,3.5,3.05,3.75,5.63.59,6.07,1.33,12.12,1.91,18.19.15,1.54.65,2.42,2.18,3.11,5.7,2.59,11.29,5.4,16.95,8.09,2.27,1.08,3.87,2.59,3.9,5.26.03,2.72-1.63,4.16-3.92,5.15-5.46,2.36-10.87,4.85-16.41,7.02-2.24.88-3.04,2.17-3.29,4.42-.63,5.78-1.56,11.52-2.22,17.29-.29,2.53-1.24,4.45-3.74,5.3-2.68.91-4.65-.3-6.4-2.27-4.14-4.66-8.4-9.23-12.49-13.94-1.11-1.28-2.18-1.37-3.66-1.1-6.32,1.16-12.65,2.3-18.99,3.3-4.6.72-7.78-3.1-6-7.55h0Zm42.67-41.09c-3.11,3.2-5.85,5.94-8.49,8.78-1.9,2.04-4.03,2.65-6.79,1.96-3.74-.94-7.54-1.62-11.91-2.53,2.14,3.92,3.91,7.27,5.8,10.56,1.44,2.51,1.44,4.81-.14,7.28-2.01,3.15-3.78,6.46-5.99,10.3,4.45-.77,8.21-1.31,11.91-2.09,2.89-.61,5.05.21,6.94,2.41,2.52,2.94,5.17,5.76,8.06,8.95.61-4.37,1.25-8.27,1.65-12.19.28-2.72,1.66-4.34,4.12-5.36,3.58-1.48,7.12-3.08,11.26-4.88-4.02-1.97-7.46-3.78-11.01-5.35-2.6-1.15-3.89-2.95-4.12-5.73-.32-3.85-.81-7.68-1.3-12.11Z"/><path class="cls-2" d="m37.91,71.39c3.03-5.15,6.13-10.6,9.42-15.94,1.27-2.06,1.55-3.72.18-5.99-3.02-5.01-5.68-10.24-8.5-15.38-1.2-2.18-1.67-4.33.02-6.47,1.74-2.2,4.02-2.31,6.57-1.73,6.01,1.36,12.06,2.57,18.06,3.99,1.59.38,2.58.07,3.65-1.07,4.24-4.5,8.6-8.91,12.87-13.38,1.72-1.81,3.62-2.85,6.21-1.99,2.59.87,3.5,2.84,3.76,5.33.62,6.07,1.32,12.12,1.9,18.19.16,1.7.64,2.74,2.41,3.53,5.72,2.54,11.31,5.38,16.95,8.08,2.18,1.05,3.72,2.59,3.69,5.11-.03,2.59-1.53,4.2-3.89,5.21-5.73,2.43-11.41,4.99-17.17,7.38-1.57.65-2.21,1.53-2.41,3.24-.73,6.32-1.59,12.63-2.57,18.92-.52,3.36-3.09,5.37-6.04,4.64-1.42-.35-2.84-1.4-3.87-2.5-4.22-4.47-8.33-9.05-12.37-13.68-1.13-1.3-2.2-1.61-3.86-1.3-6.31,1.2-12.64,2.32-18.99,3.31-4.56.71-7.79-3.19-6.03-7.5Zm15.56-32.96c2.22,4.08,4.04,7.51,5.94,10.9,1.24,2.22,1.32,4.29-.06,6.52-2.11,3.41-4.04,6.94-6.25,10.77,4.11-.72,7.8-1.22,11.42-2.05,3.32-.77,5.74.17,7.87,2.77,2.26,2.75,4.77,5.3,7.65,8.47.61-4.4,1.25-8.02,1.58-11.66.27-3.03,1.71-4.88,4.52-5.99,3.51-1.38,6.93-2.98,10.94-4.73-4.07-1.99-7.53-3.78-11.08-5.37-2.48-1.11-3.78-2.83-4.02-5.5-.36-3.93-.84-7.86-1.33-12.29-3.06,3.15-5.84,5.94-8.54,8.83-1.82,1.94-3.88,2.59-6.54,1.94-3.79-.93-7.62-1.65-12.11-2.6h0Z"/></g></svg>