<?xml version="1.0" encoding="UTF-8"?><svg id="Layer_2" xmlns="http://www.w3.org/2000/svg" xmlns:xlink="http://www.w3.org/1999/xlink" viewBox="0 0 251.88 264.59"><defs><style>.cls-1{fill:url(#linear-gradient);}.cls-1,.cls-2,.cls-3,.cls-4{fill-opacity:.3;}.cls-2{fill:url(#linear-gradient-4);}.cls-3{fill:url(#linear-gradient-2);}.cls-4{fill:url(#linear-gradient-3);}</style><linearGradient id="linear-gradient" x1="-95.32" y1="305.99" x2="-154.51" y2="181.75" gradientTransform="translate(287 326.13) scale(1 -1)" gradientUnits="userSpaceOnUse"><stop offset="0" stop-color="#9d0208"/><stop offset="1" stop-color="#ffaa04"/></linearGradient><linearGradient id="linear-gradient-2" x1="-157.71" y1="175.03" x2="-191.31" y2="104.52" xlink:href="#linear-gradient"/><linearGradient id="linear-gradient-3" x1="-93.79" y1="251.77" x2="-102.63" y2="233.22" xlink:href="#linear-gradient"/><linearGradient id="linear-gradient-4" x1="-117.34" y1="238.13" x2="-120.52" y2="231.46" xlink:href="#linear-gradient"/></defs><g id="Layer_1-2"><g><path class="cls-1" d="m135.08,9.75c.87-1.82,1.43-3.56,2.42-4.98,3.25-4.65,8.96-6.05,14.23-3.55,15.52,7.37,31.03,14.77,46.54,22.16,10.69,5.09,21.28,10.42,32.11,15.2,7.8,3.44,9.94,11.57,5.7,17.77-.21.31-.33.67-.59,1.23,3.14,1.5,6.2,2.94,9.25,4.41,7.17,3.44,9.1,10.32,5.05,17.22-6.05,10.31-13.2,19.63-23.1,26.55-14.27,9.98-29.43,11.26-45.3,4.27-1.85-.82-3.52-1.12-5.54-.71-2.48.51-5.07.49-7.59.83-.63.09-1.59.5-1.75.98-2.22,6.81-3.77,13.72-2.53,20.96.3,1.74,1,2.97,2.63,4.02,4.96,3.19,6.32,9.57,3.45,14.75-2.74,4.94-9.03,7.04-14.29,4.56-15.54-7.34-31.05-14.72-46.54-22.17-5.23-2.51-7.55-8.77-5.42-13.98,2.27-5.58,8.23-8.52,13.86-6.51,1.73.62,2.98.27,4.34-.47,5.72-3.12,9.73-7.98,13.56-13.1,1.57-2.11,1.27-3.38.04-5.73-2.95-5.64-7.72-8.73-12.8-12.05-13.74-8.98-19.73-22.29-19.81-38.47-.06-11.32,2.67-22.07,6.96-32.44,2.39-5.78,9.07-8.23,14.79-5.67,3.44,1.54,6.82,3.23,10.33,4.91h0Zm53.45,17.23c-13.07-6.23-26.13-12.45-39.2-18.68-3.54-1.69-5.45-.86-6.73,2.87-1.21,3.51-2.46,7.01-3.6,10.54-3.49,10.92-6.29,22-6.79,33.53-.49,11.48,1.32,22.39,8.19,31.96,3.83,5.34,8.36,10.2,14.52,12.62,7.23,2.84,14.91,3.27,22.6,1.69,11.62-2.39,20.72-9.03,28.82-17.26,9.5-9.67,16.85-20.94,23.76-32.5,1.52-2.55.72-4.61-2.16-5.99-13.13-6.27-26.27-12.52-39.41-18.78Zm-61.3,48.4c-4.43-20.45-.97-39.65,5.25-58.63-3.68-1.75-7.14-3.47-10.65-5.05-2.18-.98-4.2-.15-5.17,2.03-.6,1.34-1.07,2.74-1.55,4.12-3.41,9.87-5.58,19.94-4.32,30.46,1.34,11.28,6.64,20.21,16.44,27.07h0Zm62.72,29.37c.06.22.07.34.11.35.28.11.56.22.85.3,9.72,2.61,19.01,1.48,27.77-3.43,11.46-6.43,18.97-16.54,25.32-27.67,1-1.76.71-3.78-1.02-4.73-3.68-2.04-7.58-3.7-11.4-5.52-10.85,16.9-23.6,31.57-41.63,40.7h0Zm-46.65-2.51c-4.77,5.11-9.68,10.35-14.48,15.49l26.68,12.71c1-7.07,2-14.12,2.97-20.98l-15.17-7.23h0Zm-4.19,28.82c-1.26-.6-2.52-1.2-3.77-1.8-6.5-3.1-13-6.19-19.5-9.29-1.72-.82-3.54-.9-4.61.68-.7,1.04-.95,2.78-.62,3.99.26.95,1.62,1.8,2.67,2.31,10.46,5.05,20.95,10.03,31.44,15.02,4.68,2.23,9.35,4.49,14.06,6.68,2.44,1.14,4.82.24,5.53-1.98.64-1.96-.25-3.71-2.55-4.81-7.54-3.61-15.09-7.2-22.64-10.8Z"/><path class="cls-3" d="m81.5,173.65l-53.67-25.58c-1.03,2.17-2.15,4.26-2.99,6.47-.18.48.52,1.45,1.02,2.01,4.17,4.73,5.06,11.29,2.21,16.88-2.76,5.42-8.71,8.6-14.82,7.91-7.93-.89-13.77-7.87-13.21-15.78.57-8.06,7.4-14.19,15.5-13.71,1.8.11,2.6-.43,3.25-2.01,1.09-2.64,2.4-5.2,3.66-7.77,1.33-2.71,3.12-3.34,5.89-2.03,7.91,3.74,15.8,7.52,23.7,11.28.75.36,1.51.72,2.48,1.18,2.44-5.12,4.79-10.06,7.14-14.99,2.04-4.29,3.3-4.73,7.58-2.69,16.42,7.83,32.85,15.65,49.27,23.48l2.63,1.25c.98-2.06,1.91-4.06,2.89-6.04,1.21-2.47,3.18-3.37,5.22-2.43,2.05.95,2.65,3.07,1.51,5.55-.9,1.96-1.85,3.9-2.91,6.12l2.56,1.22c16.56,7.89,33.13,15.79,49.69,23.68,3.82,1.82,4.32,3.26,2.48,7.14-1.85,3.9-3.71,7.8-5.68,11.92,2.67,1.27,5.16,2.46,7.66,3.65,6.08,2.9,12.17,5.79,18.24,8.7,3.15,1.51,3.74,3.18,2.25,6.34-1.75,3.71-3.47,7.44-5.32,11.1-.65,1.29-.57,2.06.47,3.18,5.26,5.65,5.32,14.12.3,19.88-4.88,5.61-13.58,6.69-19.61,2.44-6.26-4.41-8.32-12.7-4.57-19.38,3.03-5.41,7.84-7.99,14.05-7.64,1.39.08,2.08-.22,2.63-1.5,1.27-2.9,2.69-5.73,4.12-8.73l-53.68-25.58c-1.53,3.21-3.11,6.38-4.5,9.62-.2.47.42,1.48.91,2.03,4.43,4.99,5.21,12.05,1.9,17.69-3.24,5.5-9.6,8.28-15.93,6.94-7.55-1.59-12.58-8.67-11.62-16.34.96-7.69,7.55-13.27,15.29-12.96.69.03,1.38.07,2.33.11,1.97-4.12,3.95-8.3,5.94-12.46,1.76-3.68,3.24-4.2,6.98-2.42,8.38,3.99,16.76,7.99,25.29,12.05l4.74-9.94-107.11-51.04-6.34,13.3c.73.35,1.47.7,2.2,1.05,7.83,3.73,15.66,7.46,23.48,11.19,3.29,1.57,3.86,3.2,2.3,6.5-1.16,2.45-2.22,4.95-3.53,7.32-.85,1.53-.65,2.47.54,3.78,4.56,4.99,5.03,12.69,1.3,18.04-4.06,5.81-11.35,8.15-17.62,5.65-6.57-2.62-10.39-9.02-9.47-15.88,1.03-7.67,7.64-13.25,15.4-12.77,1.82.12,2.64-.44,3.23-2.04.62-1.65,1.48-3.19,2.32-4.94h0Zm114.6,79.16c1.7-3.69.11-8.09-3.56-9.83-3.73-1.77-8.27-.09-9.96,3.69-1.65,3.69.02,8.08,3.71,9.78,3.65,1.68,8.12.02,9.8-3.63ZM21.59,169.77c1.75-3.62.19-8.13-3.42-9.88-3.66-1.78-8.1-.28-9.91,3.35-1.85,3.71-.27,8.27,3.48,10.03,3.67,1.72,8.08.16,9.85-3.5Zm60.42,28.71c1.72-3.63.12-8.12-3.52-9.85-3.67-1.74-8.1-.2-9.87,3.44-1.82,3.73-.2,8.27,3.57,10,3.68,1.69,8.08.08,9.82-3.59Zm53.71,25.53c1.69-3.65.06-8.12-3.59-9.82-3.69-1.72-8.1-.15-9.85,3.51-1.79,3.73-.14,8.27,3.64,9.97,3.69,1.67,8.08.03,9.8-3.66h0Z"/><path class="cls-4" d="m198.17,81c-.31.35-.56.77-.93,1.02-4.38,3.01-8.72,6.1-13.21,8.94-1.89,1.2-3.98.38-4.97-1.44-.98-1.79-.4-3.76,1.45-5.01,4.03-2.72,8.05-5.43,12.07-8.17,1.63-1.11,3.43-1.19,4.63.22.91,1.06,1.07,2.76,1.56,4.18-.2.08-.4.17-.6.25Z"/><path class="cls-2" d="m169.64,87.99c1.82.85,2.63,3.09,1.78,4.91-.85,1.82-3.09,2.63-4.92,1.78-1.82-.85-2.63-3.09-1.78-4.92.86-1.83,3.08-2.64,4.91-1.78Z"/></g></g></svg>